HIERARCHY
ROOT SpineBase
{
  OFFSET 0.000000 0.000000 0.000000
  CHANNELS 6 Xposition Yposition Zposition Zrotation Xrotation Yrotation
  JOINT SpineMid
  {
    OFFSET 0.000000 22.101946 0.000000
    CHANNELS 3 Zrotation Xrotation Yrotation
    JOINT SpineShoulder
    {
      OFFSET -0.699635 16.591627 -0.839088
      CHANNELS 3 Zrotation Xrotation Yrotation
      JOINT Neck
      {
        OFFSET -0.004812 5.253926 -0.796837
        CHANNELS 3 Zrotation Xrotation Yrotation
        JOINT Head
        {
          OFFSET 1.086746 9.878675 -3.291953
          CHANNELS 3 Zrotation Xrotation Yrotation
          End Site
          {
            OFFSET 0 0 0
          }
        }
      }
      JOINT ShoulderLeft
      {
        OFFSET -9.592972 2.793932 9.654239
        CHANNELS 3 Zrotation Xrotation Yrotation
        JOINT ElbowLeft
        {
          OFFSET -21.309216 -10.144966 5.941187
          CHANNELS 3 Zrotation Xrotation Yrotation
          JOINT WristLeft
          {
            OFFSET -0.283865 -24.938145 4.301685
            CHANNELS 3 Zrotation Xrotation Yrotation
            JOINT HandLeft
            {
              OFFSET 0.217695 -1.733883 -8.074288
              CHANNELS 3 Zrotation Xrotation Yrotation
              JOINT HandTipLeft
              {
                OFFSET -0.109553 -2.331907 -0.531356
                CHANNELS 3 Zrotation Xrotation Yrotation
                End Site
                {
                  OFFSET 0 0 0
                }
              }
              JOINT ThumbLeft
              {
                OFFSET -1.857861 -0.450737 -2.164426
                CHANNELS 3 Zrotation Xrotation Yrotation
                End Site
                {
                  OFFSET 0 0 0
                }
              }
            }
          }
        }
      }
      JOINT ShoulderRight
      {
        OFFSET -19.913121 -7.097145 20.626239
        CHANNELS 3 Zrotation Xrotation Yrotation
        JOINT ElbowRight
        {
          OFFSET 11.501183 4.039853 -23.114238
          CHANNELS 3 Zrotation Xrotation Yrotation
          JOINT WristRight
          {
            OFFSET -2.171253 -19.188173 -17.608718
            CHANNELS 3 Zrotation Xrotation Yrotation
            JOINT HandRight
            {
              OFFSET 4.287721 -12.255716 -14.412161
              CHANNELS 3 Zrotation Xrotation Yrotation
              JOINT HandTipRight
              {
                OFFSET -6.528295 -2.089800 -4.565792
                CHANNELS 3 Zrotation Xrotation Yrotation
                End Site
                {
                  OFFSET 0 0 0
                }
              }
              JOINT ThumbRight
              {
                OFFSET 1.010283 5.371247 -4.795577
                CHANNELS 3 Zrotation Xrotation Yrotation
                End Site
                {
                  OFFSET 0 0 0
                }
              }
            }
          }
        }
      }
    }
  }
  JOINT HipLeft
  {
    OFFSET 3.261281 0.652022 0.282404
    CHANNELS 3 Zrotation Xrotation Yrotation
    JOINT KneeLeft
    {
      OFFSET -35.635522 -3.013393 -3.928746
      CHANNELS 3 Zrotation Xrotation Yrotation
      JOINT AnkleLeft
      {
        OFFSET 30.028357 -2.721358 19.563833
        CHANNELS 3 Zrotation Xrotation Yrotation
        JOINT FootLeft
        {
          OFFSET -7.647335 -9.625396 3.430288
          CHANNELS 3 Zrotation Xrotation Yrotation
          End Site
          {
            OFFSET 0 0 0
          }
        }
      }
    }
  }
  JOINT HipRight
  {
    OFFSET -4.132460 -2.797060 -4.833312
    CHANNELS 3 Zrotation Xrotation Yrotation
    JOINT KneeRight
    {
      OFFSET -10.581827 -0.721970 -27.353389
      CHANNELS 3 Zrotation Xrotation Yrotation
      JOINT AnkleRight
      {
        OFFSET -6.430120 -15.777562 20.054469
        CHANNELS 3 Zrotation Xrotation Yrotation
        JOINT FootRight
        {
          OFFSET -0.889262 8.412838 -6.160884
          CHANNELS 3 Zrotation Xrotation Yrotation
          End Site
          {
            OFFSET 0 0 0
          }
        }
      }
    }
  }
}
MOTION
Frames: 14
Frame Time: 0.033333
86.155703 19.515239 388.745222 -0.297545 0.194222 170.764050 2.555619 -1.095469 -170.801948 1.574470 2.210730 -0.052309 10.883962 5.914524 2.322730 0.000000 0.000000 0.000000 0.274484 -3.411666 -1.319885 111.675235 15.347514 8.598787 -97.589102 17.765953 -52.299933 56.838262 71.831668 -27.973298 0.000000 0.000000 0.000000 0.000000 0.000000 0.000000 2.045160 -2.410305 1.749464 0.386467 3.477949 -3.198445 0.830483 1.616236 1.457640 2.449083 -8.185347 -4.922751 0.000000 0.000000 0.000000 0.000000 0.000000 0.000000 -2.237299 -0.047146 -172.136377 -7.122865 3.287229 1.874373 -4.605179 -17.912881 5.566280 0.000000 0.000000 0.000000 0.318433 -0.793579 -168.422375 -1.805911 -1.596469 -4.911275 4.432686 -2.833242 3.661255 0.000000 0.000000 0.000000
86.316879 19.707033 388.516820 -0.222079 0.190189 172.745768 1.936322 -1.398740 -172.744099 1.154861 1.794490 -0.066328 10.529675 6.804517 2.068486 0.000000 0.000000 0.000000 -0.383165 -3.268429 -1.331670 111.967017 15.806608 7.605640 -97.827459 16.337426 -52.652405 55.708475 68.045506 -23.975251 0.000000 0.000000 0.000000 0.000000 0.000000 0.000000 1.703171 -2.234332 1.467281 1.047498 3.617353 -3.511531 -1.134973 1.079234 3.311748 2.105884 -6.301269 -7.578369 0.000000 0.000000 0.000000 0.000000 0.000000 0.000000 -1.806001 0.180753 -172.080797 -6.663861 3.692794 1.355841 -5.241423 -17.643197 3.772633 0.000000 0.000000 0.000000 0.079825 -0.328756 -170.983949 -3.665658 -0.545009 -6.632872 2.471704 -2.058329 3.384112 0.000000 0.000000 0.000000
86.428934 19.543142 388.849281 -0.899589 -1.474985 174.472551 0.968355 -2.639481 -174.460171 1.082488 1.864372 -0.027800 11.286660 9.198408 1.857082 0.000000 0.000000 0.000000 -1.340208 -2.957042 -1.376434 112.534892 16.723213 5.831804 -96.566504 15.433741 -55.427723 49.565307 62.830225 -13.260950 0.000000 0.000000 0.000000 0.000000 0.000000 0.000000 1.653023 -1.199934 1.299293 0.865230 2.834483 -3.434783 -1.114694 -0.285283 2.789343 1.563120 -4.504882 -6.164992 0.000000 0.000000 0.000000 0.000000 0.000000 0.000000 -1.895709 -1.507146 -174.099533 -5.360555 3.000459 0.772765 -3.824019 -13.841674 3.512337 0.000000 0.000000 0.000000 -0.239701 -2.476797 -173.140905 -5.442562 -0.693307 -8.762572 1.152285 -2.177702 3.408558 0.000000 0.000000 0.000000
86.391804 19.428009 389.557973 -1.024138 -2.724900 171.050507 0.844289 -2.520568 -171.100884 1.299747 2.249472 0.057825 10.946121 10.757992 1.471590 0.000000 0.000000 0.000000 -1.899562 -2.080986 -1.340723 113.721770 17.297101 4.792212 -96.742945 15.446693 -56.667969 50.506640 63.939311 -14.453191 0.000000 0.000000 0.000000 0.000000 0.000000 0.000000 1.433207 0.129835 0.986597 0.758584 1.982558 -3.203210 -2.335297 -2.241351 3.359808 2.842468 -2.123959 -7.045843 0.000000 0.000000 0.000000 0.000000 0.000000 0.000000 -1.042410 -2.971027 -172.355633 -3.598349 1.811968 -0.127889 -0.688762 -9.346567 5.343380 0.000000 0.000000 0.000000 0.515648 -4.780547 -171.340853 -6.871131 -1.350640 -9.743278 4.716371 1.308185 7.926756 0.000000 0.000000 0.000000
85.240478 19.641934 389.145499 -1.997606 -1.142352 167.485352 0.493088 -2.273974 -167.505570 2.357371 2.688264 0.126938 7.712751 5.433782 1.551081 0.000000 0.000000 0.000000 -2.160957 -3.813302 -1.308310 111.140581 19.394755 1.281995 -89.931746 12.854984 -66.591999 38.000724 58.480765 5.183752 0.000000 0.000000 0.000000 0.000000 0.000000 0.000000 0.773424 -1.792224 0.747516 1.251320 1.871651 -3.336425 -4.561180 -4.529966 4.990657 5.593181 -0.174918 -9.511533 0.000000 0.000000 0.000000 0.000000 0.000000 0.000000 -2.247294 -1.816848 -170.191632 -3.019464 1.017204 -1.323176 1.711749 -4.191620 5.984620 0.000000 0.000000 0.000000 -1.093308 -2.556073 -168.971355 -8.151740 -0.764360 -9.481829 4.730748 8.590517 10.199347 0.000000 0.000000 0.000000
84.322379 19.770282 389.346992 -2.714727 -0.799987 164.780769 0.520007 -2.099153 -164.816762 2.480115 2.493721 0.087090 6.592823 3.046058 1.497980 0.000000 0.000000 0.000000 -0.954776 -3.815428 -0.772342 109.572965 18.257144 2.561606 -89.466941 13.372980 -66.004710 36.778284 56.279217 7.731636 0.000000 0.000000 0.000000 0.000000 0.000000 0.000000 0.929316 -2.555165 0.713011 1.446835 2.324812 -3.008467 -9.887756 -10.533761 9.162369 15.076644 -0.100691 -10.100773 0.000000 0.000000 0.000000 0.000000 0.000000 0.000000 -2.504735 -1.868094 -169.248010 -2.730221 0.718648 -1.069777 5.014880 -5.348199 9.961845 0.000000 0.000000 0.000000 -2.060056 -2.124417 -167.972965 -9.534417 -1.475458 -8.885131 5.198918 12.196585 11.736239 0.000000 0.000000 0.000000
83.621707 19.724386 390.669611 -3.044357 -2.463907 160.133591 1.477883 -2.352518 -160.257393 2.045966 2.001226 -0.032938 7.257500 3.233556 1.548417 0.000000 0.000000 0.000000 0.616138 -2.101792 -0.620953 109.556164 17.410085 4.121472 -89.823906 14.805644 -65.182361 37.305508 58.077339 6.238372 0.000000 0.000000 0.000000 0.000000 0.000000 0.000000 1.591016 -2.239424 0.269561 1.421656 3.288305 -1.675790 -10.761102 -11.799194 9.709240 16.432637 1.606789 -12.872564 0.000000 0.000000 0.000000 0.000000 0.000000 0.000000 -0.462072 -3.376781 -164.194863 -1.799008 1.206818 0.594524 6.604390 -5.281043 7.864129 0.000000 0.000000 0.000000 -1.762754 -3.878458 -165.131735 -7.209065 -0.865768 -4.438773 4.327208 6.494914 8.507760 0.000000 0.000000 0.000000
83.813180 19.871951 390.877864 -2.145752 -1.567739 162.802857 1.766032 -0.731894 -162.975716 1.134498 1.784855 -0.141969 7.783280 2.762839 1.687078 0.000000 0.000000 0.000000 1.384299 -1.134444 -0.851766 111.018322 16.664953 5.955327 -92.520339 16.100916 -62.721400 40.380594 65.731312 -2.820125 0.000000 0.000000 0.000000 0.000000 0.000000 0.000000 2.190428 -2.291381 1.119988 0.612060 4.041914 -1.322798 -5.816597 -5.837331 6.053537 7.222816 5.331720 -18.577997 0.000000 0.000000 0.000000 0.000000 0.000000 0.000000 0.581812 -2.025781 -165.758711 -1.327709 1.442846 0.314208 6.634420 -3.643474 5.571990 0.000000 0.000000 0.000000 -1.501832 -2.431595 -167.239851 -6.281050 -0.379239 -3.665392 3.066900 1.962362 6.047009 0.000000 0.000000 0.000000
84.083522 19.922824 391.819233 -1.358540 -2.510863 157.765707 2.276838 -0.454255 -157.947417 0.871763 1.871686 -0.117366 7.159321 2.185649 1.611458 0.000000 0.000000 0.000000 2.418789 -0.624956 0.379199 111.640502 16.066035 5.323867 -95.889204 15.633774 -59.055255 44.141010 67.981490 -10.759690 0.000000 0.000000 0.000000 0.000000 0.000000 0.000000 1.504591 -2.861866 1.269499 1.561172 5.537279 -1.827744 0.493222 1.118892 1.159903 -0.171395 1.638726 -19.294298 0.000000 0.000000 0.000000 0.000000 0.000000 0.000000 2.112926 -2.644555 -162.257800 -1.840723 1.676976 3.229802 5.278795 -4.432990 3.561472 0.000000 0.000000 0.000000 -0.177813 -3.151066 -162.184063 -6.308437 -0.214743 -3.775183 4.563095 3.107234 7.486180 0.000000 0.000000 0.000000
84.176607 19.831259 392.469480 -1.310377 -2.923875 154.601575 1.942612 -0.086156 -154.817428 0.611239 1.969749 -0.096609 7.146994 2.064049 1.656579 0.000000 0.000000 0.000000 2.408036 0.060266 0.364078 113.050227 14.495322 7.988009 -100.019315 17.934828 -51.203480 66.981003 75.996615 -42.273782 0.000000 0.000000 0.000000 0.000000 0.000000 0.000000 1.193196 -2.877085 1.429815 2.214413 7.709174 -2.468051 3.234206 2.671869 -0.770464 -1.931725 0.946154 -25.903251 0.000000 0.000000 0.000000 0.000000 0.000000 0.000000 2.548255 -3.017802 -160.557034 -2.401254 1.775199 5.397417 4.566971 -6.430751 3.631449 0.000000 0.000000 0.000000 0.235435 -3.526977 -159.010145 -5.480958 0.147233 -2.877283 4.428372 1.303000 6.781470 0.000000 0.000000 0.000000
85.093128 19.443130 393.497454 -0.041614 -3.535031 148.721624 2.087527 0.998072 -148.927775 0.313529 2.261907 -0.018573 7.743254 2.748585 1.843219 0.000000 0.000000 0.000000 2.015893 1.052381 0.288617 113.483798 13.487002 9.667815 -101.400375 20.026767 -46.893224 73.977334 76.554093 -51.333617 0.000000 0.000000 0.000000 0.000000 0.000000 0.000000 0.987952 -1.623653 1.703007 1.920682 8.398400 -2.728337 6.201989 4.167123 -2.981148 -7.059646 2.777956 -28.428542 0.000000 0.000000 0.000000 0.000000 0.000000 0.000000 4.067894 -3.061707 -158.127572 -3.163281 1.405852 8.859427 2.566740 -9.040405 4.416393 0.000000 0.000000 0.000000 2.432139 -3.652280 -151.757322 -4.809303 -0.217450 -3.630936 6.123169 -4.377086 6.710299 0.000000 0.000000 0.000000
85.154205 19.425715 392.670396 0.026574 -2.203982 152.732591 2.132377 1.506513 -152.947943 0.905307 2.167067 -0.001430 7.599988 2.404134 1.888759 0.000000 0.000000 0.000000 2.677922 0.442895 0.790019 112.426943 11.850797 11.719322 -103.371727 20.475786 -42.001638 92.016390 76.317457 -71.658085 0.000000 0.000000 0.000000 0.000000 0.000000 0.000000 0.807972 -1.833168 1.590781 1.576608 8.065353 -2.537066 6.819637 4.011612 -3.582386 -7.402889 2.284336 -27.346123 0.000000 0.000000 0.000000 0.000000 0.000000 0.000000 3.525720 -1.717437 -159.100715 -3.114637 2.111767 7.343787 2.799235 -10.662831 3.854590 0.000000 0.000000 0.000000 1.231080 -2.213676 -155.216315 -5.314335 -0.110228 -4.415353 4.688199 -0.942334 6.178651 0.000000 0.000000 0.000000
86.011862 19.548487 391.465159 1.357258 -0.465629 155.975059 2.841873 2.478272 -156.183256 1.518652 3.284592 0.072184 7.694914 1.638371 2.118582 0.000000 0.000000 0.000000 1.734576 -1.506744 0.329970 112.013651 11.293314 13.136792 -103.185889 21.767989 -40.487095 87.596797 74.935116 -65.910270 0.000000 0.000000 0.000000 0.000000 0.000000 0.000000 0.447948 -2.783691 1.512105 0.814623 6.818257 -2.389928 5.770198 2.572620 -2.901403 -7.080849 2.527079 -23.148978 0.000000 0.000000 0.000000 0.000000 0.000000 0.000000 2.973346 0.193041 -160.175466 -3.792643 2.458801 5.011382 2.864698 -11.152775 4.454375 0.000000 0.000000 0.000000 1.429230 0.127368 -155.971132 -5.096998 -0.025978 -6.349872 3.878633 0.563181 5.480096 0.000000 0.000000 0.000000
86.163516 19.808120 391.138588 2.214738 0.172422 153.262321 2.754548 2.772460 -153.434347 2.683926 4.218105 0.236752 3.270746 -2.505299 1.431399 0.000000 0.000000 0.000000 -0.413968 -2.695774 -0.667987 111.843249 13.058905 11.404033 -101.656661 20.041987 -45.007422 72.915880 73.776515 -48.217020 0.000000 0.000000 0.000000 0.000000 0.000000 0.000000 -1.307427 -3.671461 0.704258 0.951640 5.457489 -2.187720 3.800363 2.298305 -1.406894 -5.905979 0.684957 -16.482520 0.000000 0.000000 0.000000 0.000000 0.000000 0.000000 2.507198 0.926195 -158.064105 -4.211301 2.065562 4.094775 2.695068 -12.725368 7.478263 0.000000 0.000000 0.000000 2.461647 0.626583 -153.672103 -4.889950 -1.091674 -5.981358 5.866463 3.718604 7.299193 0.000000 0.000000 0.000000
